<?xml version="1.0" encoding="utf-8"?>
<!-- Generator: Adobe Illustrator 26.0.2, SVG Export Plug-In . SVG Version: 6.00 Build 0)  -->
<svg version="1.1" id="art" xmlns="http://www.w3.org/2000/svg" xmlns:xlink="http://www.w3.org/1999/xlink" x="0px" y="0px"
	 viewBox="0 0 1000 118.8" style="enable-background:new 0 0 1000 118.8;" xml:space="preserve">
<style type="text/css">
	.st0{fill:#EF3200;}
	.st1{fill:#748491;}
</style>
<g>
	<path class="st0" d="M76.4,0v74.9h7.6v19.4H55.6v-7.5c-4.6,5.9-11,9-19.6,9C17.6,95.8,0,79.8,0,58.2c0-20.9,17.2-36.6,35.4-36.6
		c7.8,0,14.6,3,20.3,8.1V19.4H48V0H76.4z M56.2,58.2c0-9.4-7.6-16.8-17.3-16.8s-17.2,8-17.2,17.3c0,9.5,7.9,17.2,17.2,17.2
		C48.7,75.9,56.2,67.7,56.2,58.2z"/>
	<path class="st0" d="M119.6,23.1v51.8h7.4v19.4H91V74.9h7.5V42.4H91V23.1H119.6z M119.6,0v19.4H98.5V0H119.6z"/>
	<path class="st0" d="M173.3,22.9h13.8v20.6h-19c-0.4-4.1-3-6.3-7.1-6.3c-3.9,0-6.7,2.1-6.7,5.2c0,4,4.3,5.7,14.3,8.1
		c9.2,2.2,14.8,5,18.2,8.5c3.5,3.7,5.2,8.3,5.2,14c0,13-10.3,22.9-25.7,22.9c-7.6,0-12.9-1.7-18.1-6.1v4.5h-14.3V73.9h20
		c0.8,4.9,3.6,7,8.9,7c4.8,0,7.1-2.5,7.1-5.7c0-3.6-2.5-5.4-11-7.8l-6.6-1.8c-4.1-1-7.2-2.2-10.2-4.1c-5.8-3.7-10.1-9.3-10.1-17.4
		c0-13.4,11.4-22.5,25.8-22.5c6.6,0,11.2,1.4,15.4,5.7v-4.4H173.3z"/>
	<path class="st0" d="M243.7,95.8c-6.6,0-13.4-1.6-21.2-8.1v11.9h7.5v19.2h-36V99.4h7.5v-57h-7.5V23.1h28.5v8.3
		c4.6-6.5,11.4-9.8,19.8-9.8c19.3,0,36,16.5,36,37.3C278.5,78.5,262.8,95.8,243.7,95.8z M257,58.6c0-9.9-8-17.2-17.7-17.2
		c-9.7,0-17.4,7.9-17.4,17.3c0,10.2,8.4,17.2,17.6,17.2C249.3,75.9,257,68.2,257,58.6z"/>
	<path class="st0" d="M336.2,23.1h28.5v19.2h-7.5v32.5h7.5v19.4h-28.5v-6.1c-4.6,5.4-11.4,8.3-19.5,8.3c-20,0.1-35.8-17.6-35.8-37.4
		c0-20.9,16.5-38.2,36.6-38.2c7.9,0,14,3,18.7,9.2V23.1z M336.3,58.5c0-9.4-7.4-17-17-17c-9.6,0-17.2,8-17.2,17.4
		c0,9.8,7.9,17,17.2,17C329,75.9,336.3,67.9,336.3,58.5z"/>
	<path class="st0" d="M401.8,0v23.1h9.8v19.2h-9.8v32.5h10.2v19.4h-31.1V42.3h-11.1V23.1h11.1V0H401.8z"/>
	<path class="st0" d="M467.5,23.1h17.7v25.6h-19.5c-3.6-4.5-7.6-7.2-13.6-7.2c-9.5,0-16.1,8-16.1,17.3c0,9.7,7.2,17.2,16.8,17.2
		c5.2,0,9.7-2.2,12.1-6.6H488c-4.7,16.1-19.5,27.2-36,27.2c-21,0-37.3-17.6-37.3-38c0-20.6,16.3-37.8,35.6-37.8
		c6.5,0,12,2.2,17.2,7.5V23.1z"/>
	<path class="st0" d="M518.3,0v32.5c4.8-7.2,11.2-10.8,19.5-10.8c15.7,0,25.3,13.3,25.3,30.1v23.1h7.4v19.4h-28.4V56.8
		c0-10.5-3.9-14.6-11.6-14.6c-8,0-12.3,5.3-12.3,14.1v18.5h7.5v19.4h-36V74.9h7.5V19.4h-7.5V0H518.3z"/>
</g>
<g>
	<g>
		<path class="st1" d="M604.4,0.1v36.1c5.3-8.5,12.2-13.3,21.9-13.3c7.4,0,14.1,2.8,19,8.5c4.9,5.7,7.4,13.4,7.4,23.1v27.8H663v11.9
			h-33.2V82.3H640V56.4c0-7.2-0.9-9.5-2.3-12.2c-3.1-5.4-8.4-8.5-15.1-8.5c-10.2,0-18,6.8-18,21v25.8h10.1v11.9h-33.2v-12h10.2V12
			h-10.2V0.1H604.4z"/>
		<path class="st1" d="M735.6,64h-59.7c2.5,12.8,12.1,20.7,24.2,20.7c8.5,0,14.9-3.5,19.7-10.7h13.3c-6.4,14.2-19,22.2-33.1,22.2
			c-20,0-36.7-16.1-36.7-36.6c0-21.1,16.6-37,36.2-37c19.5,0,36.4,15.2,36.4,37.1C736,61.3,735.8,63.1,735.6,64z M724.3,54.1
			c-2.7-12.2-12.8-20.3-24.8-20.3c-10.6,0-20.9,7.6-23.6,20.3C675.9,54.1,724.3,54.1,724.3,54.1z"/>
		<path class="st1" d="M803.5,24.3h22.9v11.9h-10v46.1h10v11.9h-22.9V82.3c-6.8,9.5-14.8,13.3-25.3,13.3c-19.7,0-35.4-16.5-35.4-36
			c0-19.6,15.8-36.7,36-36.7c10.6,0,18.2,4.1,24.8,13.5V24.3H803.5z M803.5,59c0-12.8-10.4-23.5-24.1-23.5
			c-13.3,0-23.7,11-23.7,23.8c0,13,10.6,23.6,23.7,23.6C792.6,83,803.5,72.5,803.5,59z"/>
		<path class="st1" d="M859.4,0.1v82.2h10.3v11.9h-33.9V82.3h10.9V12h-10.3V0.1H859.4z"/>
		<path class="st1" d="M893.9,0.1v24.2h13.4v11.9h-13.4v46.1h14.3v11.9H881v-58h-12.1V24.3H881V0.1H893.9z"/>
		<path class="st1" d="M941.4,0.1v36.1c5.3-8.5,12.2-13.3,21.9-13.3c7.4,0,14.1,2.8,19,8.5c4.9,5.7,7.4,13.4,7.4,23.1v27.8h10.3
			v11.9h-33.2V82.3H977V56.4c0-7.2-0.9-9.5-2.3-12.2c-3.1-5.4-8.4-8.5-15.1-8.5c-10.2,0-18,6.8-18,21v25.8h10.3v11.9h-33.2v-12h10.2
			V12h-10.2V0.1H941.4z"/>
	</g>
</g>
</svg>
